<svg data-name="Layer 1" xmlns="http://www.w3.org/2000/svg" width="24" height="24">
  <path d="M12 15.75a11.94 11.94 0 0 1-.88-1.23c-.18-.22-.84-.66-.87-.87s.77 0 1.36-.12l.26-.06.19-.08h.06a6.29 6.29 0 0 0 1.43-3.06 7.12 7.12 0 0 0 1.14 3.66l.28.16c.77.09 1.45.46 2.22.52a5.81 5.81 0 0 0 1.81-.26 4.8 4.8 0 0 0 2.93-1.88 5.17 5.17 0 0 0 1-3 16.94 16.94 0 0 0-.21-4.93.14.14 0 0 0 0-.06.13.13 0 0 0-.07-.06A8.41 8.41 0 0 0 14.82 7a4.86 4.86 0 0 0-1.17 2.52c-.08-3.72-4.29-6.83-8.33-7a.12.12 0 0 0-.1.06 10.78 10.78 0 0 0-.48 2.73 16.09 16.09 0 0 0-.28 3 5.77 5.77 0 0 0 .72 2.32c.16.29 1.43 1.64 1.42 1.75a14.08 14.08 0 0 1-1.78.57A7.17 7.17 0 0 0 2.9 14 9.93 9.93 0 0 0 0 18.49a.11.11 0 0 0 0 .08 16.37 16.37 0 0 0 4.3 2.49 5 5 0 0 0 3.3.4 4.81 4.81 0 0 0 2.91-1.91 5.64 5.64 0 0 0 .9-1.46c.22-.63.15-1.54.67-2z" fill="#459312"/>
  <path d="M22.72 4.59a.09.09 0 0 0 0-.07s-.05-.07-.08-.07a9.69 9.69 0 0 0-4.25.24 7.43 7.43 0 0 0-3.59 2.25 4.85 4.85 0 0 0-1.14 2.3A6.66 6.66 0 0 0 11 4.61 10.18 10.18 0 0 0 5.33 2.4a.13.13 0 0 0-.12.07 7 7 0 0 0-.41 2.08c0 .23 0 .45-.07.66s-.07.47-.1.71a10.59 10.59 0 0 0-.18 2.31 5.68 5.68 0 0 0 .72 2.33 11 11 0 0 0 .74.9 10.28 10.28 0 0 1 .68.83 3.84 3.84 0 0 1-1 .32 7 7 0 0 0-.78.24A7.26 7.26 0 0 0 2.88 14 10 10 0 0 0 0 18.48a.14.14 0 0 0 0 .11 13.33 13.33 0 0 0 3.52 2.11l.71.33a5.06 5.06 0 0 0 2.23.52 5 5 0 0 0 1.08-.12 4.79 4.79 0 0 0 2.93-1.92 5.23 5.23 0 0 0 .9-1.47 3.53 3.53 0 0 0 .16-.71 2.28 2.28 0 0 1 .5-1.3.14.14 0 0 0 .14 0 3.34 3.34 0 0 1 1.4-.9 5.07 5.07 0 0 1 1.76 3.46.12.12 0 0 0 .13.14.15.15 0 0 0 .15-.14 5.79 5.79 0 0 0-1.67-3.56 1.82 1.82 0 0 0 .86-.61 2.13 2.13 0 0 0 .16-.28 6.48 6.48 0 0 1 1 .25 5.36 5.36 0 0 0 1.2.27 5.69 5.69 0 0 0 1.84-.23 4.85 4.85 0 0 0 2.95-1.88 5.33 5.33 0 0 0 1-3v-.7a14 14 0 0 0-.23-4.26zm-15.56 7.9a.15.15 0 0 0-.06-.16A5.69 5.69 0 0 1 4.8 7c0-.3 0-.61.07-1a8 8 0 0 1 .34-2.25 1.57 1.57 0 0 1 .38-.63c.78 1.06 1.53 2.18 2.23 3.31a1.91 1.91 0 0 1-.56-.34l-.31-.26a4.73 4.73 0 0 1-.56-.54c-.07-.07-.16-.09-.21 0s0 .08 0 .15a11.82 11.82 0 0 0 1 1 2.17 2.17 0 0 0 .53.3l.29.11h.09c.27.44.53.9.8 1.36a.11.11 0 0 0 0 .08l-.55-.24A4.38 4.38 0 0 1 6 6.45a.25.25 0 0 0-.12-.11.15.15 0 0 0-.13 0 .1.1 0 0 0 0 .07 5.23 5.23 0 0 0 2.63 2l.62.33a15.91 15.91 0 0 1 1 1.54A12.83 12.83 0 0 1 6.23 8.4a.21.21 0 0 0-.26 0v.13a9.51 9.51 0 0 0 4 2.14 9 9 0 0 1 1 1.53 9.22 9.22 0 0 1-2.4-.87l-.22-.1a4.53 4.53 0 0 1-2.17-1.58.19.19 0 0 0-.18-.11h-.08c-.01 0 0 .05 0 .11a4.54 4.54 0 0 0 2.26 1.79l.15.07a9.85 9.85 0 0 0 2.73.95l.09.19c.05.11.11.22.16.34l.12.23c-.56.06-1.33.07-1.59.07-.07 0-.12 0-.13.09a.17.17 0 0 0 0 .18 5.25 5.25 0 0 1 1.86 2.14 4.45 4.45 0 0 1-.54-.07.19.19 0 0 0-.09 0 .14.14 0 0 0-.11 0 .75.75 0 0 1-.2-.15 9.16 9.16 0 0 0-2.81-1.65 4.88 4.88 0 0 0-2.63-.52.07.07 0 0 0-.07 0 .15.15 0 0 0 0 .08.35.35 0 0 0 .28.1 4.62 4.62 0 0 1 2.61.73l.2.1.26.13a8.2 8.2 0 0 1 1.76 1.05c-.18 0-.32 0-.45-.05h-.15c-.61 0-1.62 0-1.69-.06A9.3 9.3 0 0 0 4 13.8c-.07 0-.08 0-.09.06s.12.24.24.26a8.14 8.14 0 0 1 3.55 1.52l-.82.12-.67.09-.6-.21a5.76 5.76 0 0 0-3.06-.55.07.07 0 0 0-.07 0v.07a.28.28 0 0 0 .26.08 4.51 4.51 0 0 1 2.47.5l.57.23c-.49.12-1.54.38-1.62.38a7.28 7.28 0 0 0-2.1-.31c-.08 0-.1 0-.1.07s.08.16.19.16a6.6 6.6 0 0 1 1.72.3 24.85 24.85 0 0 0-3.2 1.45 1.12 1.12 0 0 1 .19-.74 2.68 2.68 0 0 0 .14-.2 7.32 7.32 0 0 1 6-4.49.14.14 0 0 0 .16-.1zm4.82.66a.7.7 0 0 1-.23.07c-.14-.21-.28-.45-.44-.73a.1.1 0 0 0 0-.07 10.5 10.5 0 0 0 .7-3.25A5.57 5.57 0 0 0 11.44 6c0-.06-.08-.06-.11 0a.21.21 0 0 0 0 .27c.56.87.88 3.28-.15 6-.24-.47-.47-1-.69-1.46l-.15-.34a10.64 10.64 0 0 0 .09-5 .14.14 0 0 0-.06-.08.1.1 0 0 0-.09 0 .22.22 0 0 0-.06.21 9.23 9.23 0 0 1-.09 4.38c-.17-.36-.31-.65-.45-.9l-.47-.86v-.57a5.73 5.73 0 0 0-.51-3.43.1.1 0 0 0-.09-.06.13.13 0 0 0-.07.06.23.23 0 0 0 0 .21 4.71 4.71 0 0 1 .39 2.91v.42c-.28-.49-.57-1-.85-1.43a.12.12 0 0 0 0-.09A7.46 7.46 0 0 0 7.54 4c0-.08-.08-.09-.11-.07a.16.16 0 0 0-.07.22 6.51 6.51 0 0 1 .37 1.6c-.61-1-1.25-1.92-1.89-2.8A2.19 2.19 0 0 1 7.1 3l.32.07a7.82 7.82 0 0 1 5.11 3.54 5.43 5.43 0 0 1-.53 6.54zM.78 18.41a28.82 28.82 0 0 1 3.42-1.64 6.49 6.49 0 0 1-1.56 1.4.29.29 0 0 0-.11.24c0 .05 0 .09.05.1a.1.1 0 0 0 .09 0 7.64 7.64 0 0 0 1.78-1.58 8 8 0 0 1 1.63-.74L5 17.65c-.07.08-.13.17-.19.25A2.58 2.58 0 0 1 3.49 19a.26.26 0 0 0-.16.28s0 .07.11 0a2.74 2.74 0 0 0 1.42-1c.59-.76 1.14-1.46 1.64-2.18a14.38 14.38 0 0 1 1.8-.3 9.88 9.88 0 0 1-3 3.66.36.36 0 0 0-.14.24.11.11 0 0 0 0 .05h.09a10.69 10.69 0 0 0 3.28-3.82 9.6 9.6 0 0 1 2.23-.09 9.72 9.72 0 0 1-1.55 2.36l-.21.25a4.73 4.73 0 0 1-2.36 1.9.22.22 0 0 0-.14.14.13.13 0 0 0 0 .14h.1a4.88 4.88 0 0 0 2.51-1.89l.12-.15a10.69 10.69 0 0 0 1.84-2.77l.56.12a1.24 1.24 0 0 1-.12.39 2.49 2.49 0 0 0-.14.39c0 .14-.08.27-.11.4a5.48 5.48 0 0 1-1.23 2.53 4.58 4.58 0 0 1-4.37 1.55A9.55 9.55 0 0 1 2.83 20l-.56-.31-.36-.2a1.8 1.8 0 0 1-1.13-1.08zm10.39-3.9a3.11 3.11 0 0 0-.36-.34c-.21-.18-.46-.39-.49-.51a2.41 2.41 0 0 1 .39 0 8 8 0 0 0 .93-.08 2.17 2.17 0 0 0 .79.65l.14.09a6.62 6.62 0 0 1 .79.58l-.17.08a2.68 2.68 0 0 0-.57.41 1.74 1.74 0 0 1-.57.36 3.85 3.85 0 0 1-.52-.7 5.88 5.88 0 0 0-.36-.54zm3.54-.51v.06a1.57 1.57 0 0 1-1 .72c-.24-.18-.5-.34-.75-.5a4.57 4.57 0 0 1-1-.75.59.59 0 0 0 .16-.07h.07a6.37 6.37 0 0 0 1.39-2.82A7.37 7.37 0 0 0 14.71 14zm4.08-9.13a8.07 8.07 0 0 1 1.74-.22 2.89 2.89 0 0 1 1.52.34C21 6 20.12 7 19.34 7.85a7 7 0 0 1 .67-2 .18.18 0 0 0 0-.16.09.09 0 0 0-.08 0s-.06 0-.1.07A7.39 7.39 0 0 0 19 7.9a12.71 12.71 0 0 1-1 1.41c0-.25 0-.52.05-.8a4.34 4.34 0 0 1 .69-2.78c.08-.09.08-.23 0-.27s-.05 0-.11 0a5.25 5.25 0 0 0-.9 3.18v.72a14.86 14.86 0 0 1-1 1.6 8.7 8.7 0 0 1 .44-4.15.23.23 0 0 0-.08-.27s-.07 0-.1.06a9.43 9.43 0 0 0-.54 4.48 9.24 9.24 0 0 1-.65 1.13c-.14.19-.27.39-.39.57C15 11.21 15 8.43 16 7.26A.23.23 0 0 0 16 7a.07.07 0 0 0-.11 0c-1.14 1.32-1.17 4.34-.76 5.92a2.44 2.44 0 0 1-.27.75c-1.49-2.51-1.32-5.08.46-6.88a7.21 7.21 0 0 1 3.47-1.97zm-3.61 9a4.36 4.36 0 0 1 .27-.53.86.86 0 0 1 .07-.1l.05-.07a9.93 9.93 0 0 0 3.43-.71A5 5 0 0 0 21.41 11a.08.08 0 0 0 0-.09.15.15 0 0 0-.12-.07.2.2 0 0 0-.2.07c-1 1.24-3.61 1.87-5.25 1.87h-.11c.35-.52.72-1 1.1-1.54a.14.14 0 0 0 .09 0 10.13 10.13 0 0 0 4.41-1.55.1.1 0 0 0 0-.08.13.13 0 0 0-.08-.08.25.25 0 0 0-.25 0 9.39 9.39 0 0 1-4 1.4c.32-.4.66-.83 1.05-1.3a.19.19 0 0 0 .13 0c.25-.08.51-.16.79-.23a5.9 5.9 0 0 0 3.16-1.62.11.11 0 0 0 0-.12.11.11 0 0 0-.07-.06.16.16 0 0 0-.15.07 5.09 5.09 0 0 1-2.88 1.42l-.72.19c.44-.52.88-1 1.3-1.49a.12.12 0 0 0 .13 0 7.5 7.5 0 0 0 1.96-1.15c.06 0 0-.09 0-.1s-.18 0-.27 0a6.74 6.74 0 0 1-1.32.82c.61-.67 1.29-1.39 2.16-2.29a1.1 1.1 0 0 1 .27.38 7.15 7.15 0 0 1 .13 2.75v.84a5.23 5.23 0 0 1-1.24 3.63 5 5 0 0 1-4.1 1.6 8 8 0 0 1-1.2-.25 7 7 0 0 0-.93-.22z" fill="#4b5b41"/>
</svg>
