<svg data-name="Layer 1" xmlns="http://www.w3.org/2000/svg" width="24" height="24">
  <path d="M11.52 12.78a14.11 14.11 0 0 1-.85-1.18c-.17-.21-.79-.64-.82-.83s.73 0 1.29-.12l.25-.06.19-.07h.05A5.82 5.82 0 0 0 13 7.54a6.87 6.87 0 0 0 1.1 3.51l.27.14c.73.1 1.39.45 2.12.5a5.28 5.28 0 0 0 1.63-.2 4.6 4.6 0 0 0 2.81-1.79 5.07 5.07 0 0 0 1-2.88 16.92 16.92 0 0 0-.2-4.72.09.09 0 0 0 0-.06.06.06 0 0 0-.11-.04 8 8 0 0 0-7.44 2.37 4.49 4.49 0 0 0-1.12 2.41C13 3.21 9 .24 5.09 0A.15.15 0 0 0 5 .08a9.52 9.52 0 0 0-.45 2.61 14.81 14.81 0 0 0-.27 2.89A5.33 5.33 0 0 0 5 7.8c.15.28 1.37 1.57 1.36 1.67a12.9 12.9 0 0 1-1.75.53 6.73 6.73 0 0 0-1.84 1.09A9.41 9.41 0 0 0 0 15.39a.14.14 0 0 0 0 .09 15.77 15.77 0 0 0 4.05 2.33 4.76 4.76 0 0 0 3.15.39 4.61 4.61 0 0 0 2.78-1.83 5.18 5.18 0 0 0 .86-1.4c.21-.6.15-1.47.65-1.95z" fill="#459312"/>
  <path d="M21.73 2.1a.09.09 0 0 0 0-.07.13.13 0 0 0-.11-.03 9.62 9.62 0 0 0-4.06.23 7.25 7.25 0 0 0-3.4 2.15 4.65 4.65 0 0 0-1.09 2.21 6.38 6.38 0 0 0-2.56-4.43A9.73 9.73 0 0 0 5.09 0 .15.15 0 0 0 5 .07a6.7 6.7 0 0 0-.39 2c0 .22 0 .43-.07.63s-.06.45-.09.68a10.3 10.3 0 0 0-.17 2.21 5.35 5.35 0 0 0 .69 2.23 8.08 8.08 0 0 0 .7.87 5.48 5.48 0 0 1 .65.79 4.08 4.08 0 0 1-.93.3c-.31.09-.6.17-.75.23a6.72 6.72 0 0 0-1.85 1.09A9.4 9.4 0 0 0 0 15.39a.12.12 0 0 0 0 .1 12.6 12.6 0 0 0 3.37 2l.68.33a4.85 4.85 0 0 0 2.13.49 4.51 4.51 0 0 0 1-.11 4.66 4.66 0 0 0 2.8-1.84 5.12 5.12 0 0 0 .86-1.4 3.49 3.49 0 0 0 .16-.69 2.17 2.17 0 0 1 .48-1.24.14.14 0 0 0 .14 0 3.12 3.12 0 0 1 1.33-.86 4.84 4.84 0 0 1 1.69 3.31.11.11 0 0 0 .12.13.13.13 0 0 0 .14-.13 5.5 5.5 0 0 0-1.59-3.41 1.67 1.67 0 0 0 .82-.58 2.76 2.76 0 0 0 .16-.27 5.5 5.5 0 0 1 1 .24 5.25 5.25 0 0 0 1.14.25 5.27 5.27 0 0 0 1.64-.2A4.61 4.61 0 0 0 21 9.71a5.09 5.09 0 0 0 1-2.89v-.67a13.17 13.17 0 0 0-.27-4.05zM6.85 9.65a.16.16 0 0 0-.06-.15 5.44 5.44 0 0 1-2.2-5.14c0-.28 0-.58.07-.9A7.76 7.76 0 0 1 5 1.3a1.5 1.5 0 0 1 .35-.6c.75 1 1.46 2.08 2.13 3.17a1.91 1.91 0 0 1-.54-.33l-.29-.25a4.3 4.3 0 0 1-.54-.51.17.17 0 0 0-.2 0v.14a10.9 10.9 0 0 0 .92 1 1.82 1.82 0 0 0 .51.28l.3.15a.15.15 0 0 0 .09 0c.25.42.51.86.76 1.3a.19.19 0 0 0 0 .08L8 5.46a4.15 4.15 0 0 1-2.22-1.58.23.23 0 0 0-.12-.1.17.17 0 0 0-.12 0 .2.2 0 0 0 0 .07A5.16 5.16 0 0 0 8 5.78l.61.29a13.48 13.48 0 0 1 .92 1.47A12.14 12.14 0 0 1 6 5.75a.2.2 0 0 0-.25 0v.12a9.1 9.1 0 0 0 3.83 2 9.59 9.59 0 0 1 .91 1.47 9.26 9.26 0 0 1-2.29-.83L8 8.43a4.21 4.21 0 0 1-2-1.49.18.18 0 0 0-.15-.1.06.06 0 0 0-.07 0A.13.13 0 0 0 5.7 7a4.32 4.32 0 0 0 2.16 1.69l.14.06a9 9 0 0 0 2.6.91l.09.18c.06.11.11.22.16.33s.07.16.11.23c-.53 0-1.27.06-1.52.06a.13.13 0 0 0-.13.09.14.14 0 0 0 .06.16 5 5 0 0 1 1.77 2.06l-.51-.06a.1.1 0 0 0-.08-.05.13.13 0 0 0-.12 0 .84.84 0 0 1-.18-.15A8.83 8.83 0 0 0 7.55 11 4.57 4.57 0 0 0 5 10.46a.07.07 0 0 0-.06 0v.07a.31.31 0 0 0 .26.1 4.37 4.37 0 0 1 2.49.7l.2.09.25.13a8 8 0 0 1 1.69 1 2.53 2.53 0 0 0-.43 0h-.19c-.58 0-1.55 0-1.61-.06a9 9 0 0 0-3.76-1.57.08.08 0 0 0-.09.05.29.29 0 0 0 .23.25 7.92 7.92 0 0 1 3.4 1.46l-.79.11-.59.08-.57-.2a5.47 5.47 0 0 0-2.93-.53h-.07c-.01 0 0 0 0 .07a.28.28 0 0 0 .25.08 4.28 4.28 0 0 1 2.32.52l.54.21c-.46.12-1.46.37-1.55.37H4a6.71 6.71 0 0 0-2-.3c-.07 0-.1 0-.1.07a.18.18 0 0 0 .19.15 6.87 6.87 0 0 1 1.64.28A24.87 24.87 0 0 0 .66 15a1.1 1.1 0 0 1 .18-.7c0-.07.07-.15.11-.24a7 7 0 0 1 5.77-4.3.16.16 0 0 0 .13-.11zm4.61.64a.71.71 0 0 1-.22.07c-.14-.21-.27-.44-.42-.71v-.06a9.89 9.89 0 0 0 .66-3.11 5.33 5.33 0 0 0-.59-3.06.07.07 0 0 0-.11 0 .2.2 0 0 0 0 .26c.54.83.84 3.14-.14 5.72-.21-.5-.43-.98-.64-1.4l-.15-.33a10.15 10.15 0 0 0 .09-4.77.11.11 0 0 0-.06-.07.09.09 0 0 0-.09 0 .22.22 0 0 0 0 .2 9.1 9.1 0 0 1-.08 4.19c-.17-.35-.3-.62-.44-.87s-.29-.54-.45-.81v-.55A5.47 5.47 0 0 0 8.3 1.7c0-.05-.06-.06-.08-.06a.13.13 0 0 0-.07.06.21.21 0 0 0 0 .2 4.59 4.59 0 0 1 .38 2.78v.4c-.29-.47-.53-.93-.83-1.36a.12.12 0 0 0 0-.09 7.1 7.1 0 0 0-.52-2.08.09.09 0 0 0-.11-.07.17.17 0 0 0-.07.22 6.81 6.81 0 0 1 .4 1.53C6.81 2.29 6.2 1.39 5.59.55a2.07 2.07 0 0 1 1.2 0l.31.1A7.52 7.52 0 0 1 12 4a5.19 5.19 0 0 1-.54 6.29zm-10.71 5A26.47 26.47 0 0 1 4 13.75a6.38 6.38 0 0 1-1.5 1.34.29.29 0 0 0-.1.23s0 .08.05.1a.09.09 0 0 0 .08 0 7.41 7.41 0 0 0 1.71-1.5 6.57 6.57 0 0 1 1.56-.71c-.34.46-.68.92-1.05 1.4l-.18.24a2.39 2.39 0 0 1-1.25 1 .26.26 0 0 0-.15.27s0 .07.1 0a2.67 2.67 0 0 0 1.36-1c.56-.75 1.07-1.41 1.57-2.1A12.87 12.87 0 0 1 8 12.8a9.37 9.37 0 0 1-2.86 3.5.31.31 0 0 0-.13.23.09.09 0 0 0 .08 0 10.17 10.17 0 0 0 3.12-3.63 9 9 0 0 1 2.13-.07 9.62 9.62 0 0 1-1.48 2.25l-.23.28a4.64 4.64 0 0 1-2.26 1.82.2.2 0 0 0-.14.13.12.12 0 0 0 0 .13.08.08 0 0 0 .09 0 4.59 4.59 0 0 0 2.4-1.8l.12-.15a10 10 0 0 0 1.76-2.65l.53.11a1.47 1.47 0 0 1-.11.38 1.92 1.92 0 0 0-.14.37c0 .13-.07.26-.1.38A5.21 5.21 0 0 1 9.6 16.5 4.34 4.34 0 0 1 5.45 18a8.9 8.9 0 0 1-2.75-1.18l-.52-.3a3 3 0 0 0-.36-.18c-.48-.25-.89-.46-1.07-1.02zm9.94-3.73a2.94 2.94 0 0 0-.35-.33c-.21-.17-.44-.37-.47-.49h.38a7.08 7.08 0 0 0 .88-.07 2.19 2.19 0 0 0 .76.62l.14.09a6 6 0 0 1 .75.55l-.16.08a3.19 3.19 0 0 0-.55.39 1.76 1.76 0 0 1-.54.35 3.78 3.78 0 0 1-.51-.68 5.11 5.11 0 0 0-.33-.48zm3.38-.54v.06a1.46 1.46 0 0 1-.92.69 6.8 6.8 0 0 0-.71-.48 4.22 4.22 0 0 1-1-.72l.16-.06h.06A6 6 0 0 0 13 7.78a7 7 0 0 0 1.07 3.27zM18 2.32a7.41 7.41 0 0 1 1.66-.21 2.85 2.85 0 0 1 1.45.32c-1 1.06-1.84 1.94-2.59 2.78a6.68 6.68 0 0 1 .64-1.92.18.18 0 0 0 0-.16.12.12 0 0 0-.08 0s-.06 0-.09.07a6.85 6.85 0 0 0-.77 2.1 11.63 11.63 0 0 1-.92 1.35v-.76a4.19 4.19 0 0 1 .7-2.7.2.2 0 0 0 0-.26h-.1A5 5 0 0 0 17.06 6c0 .24 0 .46-.06.68a11.67 11.67 0 0 1-1 1.53 8.44 8.44 0 0 1 .42-4 .23.23 0 0 0-.06-.21s-.07 0-.1.06a9 9 0 0 0-.52 4.28 6.34 6.34 0 0 1-.62 1.09l-.37.54c-.39-1.51-.41-4.18.56-5.3.07-.08.07-.23 0-.27s-.05 0-.11 0c-1.08 1.26-1.11 4.15-.72 5.66a2.07 2.07 0 0 1-.26.71c-1.42-2.4-1.26-4.86.44-6.57A6.93 6.93 0 0 1 18 2.32zm-3.46 8.59a4.85 4.85 0 0 1 .26-.51l.06-.1.05-.06a9.3 9.3 0 0 0 3.21-.63 4.79 4.79 0 0 0 2.33-1.35.08.08 0 0 0 0-.09.18.18 0 0 0-.11-.07.26.26 0 0 0-.2.07c-.92 1.19-3.45 1.79-5 1.79h-.1c.33-.5.68-1 1-1.48a.15.15 0 0 0 .09 0A9.69 9.69 0 0 0 20.42 7v-.08c0-.02 0-.06-.07-.08a.25.25 0 0 0-.24 0 8.92 8.92 0 0 1-3.83 1.34c.3-.38.63-.79 1-1.25a.09.09 0 0 0 .11 0l.76-.22a5.51 5.51 0 0 0 3-1.54v-.12a.08.08 0 0 0-.08 0 .12.12 0 0 0-.13.06 5 5 0 0 1-2.76 1.36l-.69.18 1.24-1.42a.2.2 0 0 0 .13 0 7.41 7.41 0 0 0 1.79-1.18c.06 0 0-.09 0-.1s-.17 0-.25 0a6.92 6.92 0 0 1-1.26.78c.59-.64 1.24-1.32 2.08-2.19a1.15 1.15 0 0 1 .25.37 6.93 6.93 0 0 1 .13 2.63v.81a5 5 0 0 1-1.19 3.46 4.79 4.79 0 0 1-3.92 1.53 6.17 6.17 0 0 1-1.15-.23 6.41 6.41 0 0 0-.84-.11z" fill="#4b5b41"/>
  <path d="M23.29 14.84h-9.58l1-1.13h7.64l1 1.13h-.06z" fill="#6c4127"/>
  <path d="M23.29 15.06h-9.58a.26.26 0 0 1-.21-.14.25.25 0 0 1 0-.25l1-1.14a.24.24 0 0 1 .17-.07h7.64a.24.24 0 0 1 .17.07l1 1.14a.23.23 0 0 1 0 .25.26.26 0 0 1-.19.14zm-9.14-.44h8.7l-.63-.72h-7.44z" fill="#6c4127"/>
  <path fill="#935f42" d="M14.18 16.5h8.65v6.82h-8.65z"/>
  <path d="M22.82 23.54h-8.64a.22.22 0 0 1-.22-.22V16.5a.21.21 0 0 1 .22-.21h8.64a.21.21 0 0 1 .22.21v6.82a.22.22 0 0 1-.22.22zm-8.42-.44h8.2v-6.38h-8.2z" fill="#935f42"/>
  <path fill="#6c4127" d="M16.67 17.5h3.66v1.33h-3.66z"/>
  <path d="M20.33 19.05h-3.66a.22.22 0 0 1-.22-.22V17.5a.22.22 0 0 1 .22-.22h3.66a.22.22 0 0 1 .22.22v1.33a.22.22 0 0 1-.22.22zm-3.44-.44h3.22v-.89h-3.22z" fill="#6c4127"/>
  <path fill="#eeeeec" d="M16.17 20h4.66v2h-4.66z"/>
  <path d="M23.32 16.5h-9.64v-1.61l.05-.05h9.54l.05.05z" fill="#996b52"/>
  <path d="M23.32 16.72h-9.64a.22.22 0 0 1-.22-.22v-1.61a.27.27 0 0 1 .27-.27h9.54a.27.27 0 0 1 .27.27v1.61a.22.22 0 0 1-.22.22zm-9.42-.43h9.2v-1.23h-9.2z" fill="#996b52"/>
  <path d="M22.32 13.46a.24.24 0 0 1 .17.07l1 1.14a.21.21 0 0 1 .05.15V16.5a.22.22 0 0 1-.22.22H23v6.6a.22.22 0 0 1-.22.22h-8.6a.22.22 0 0 1-.22-.22v-6.6h-.28a.22.22 0 0 1-.22-.22v-1.61-.07a.26.26 0 0 1 0-.15l1-1.14a.24.24 0 0 1 .17-.07h7.64m0-.46h-7.59a.69.69 0 0 0-.52.24l-1 1.13a.63.63 0 0 0-.15.33.49.49 0 0 0 0 .19v1.61a.68.68 0 0 0 .5.66v6.16a.67.67 0 0 0 .68.68h8.64a.67.67 0 0 0 .68-.68v-6.16a.68.68 0 0 0 .5-.66v-1.81a.68.68 0 0 0-.15-.32l-1-1.13a.69.69 0 0 0-.52-.24z" fill="#6c4127"/>
</svg>
